<?xml version="1.0"?>
<svg xmlns="http://www.w3.org/2000/svg" xmlns:xlink="http://www.w3.org/1999/xlink" xmlns:svgjs="http://svgjs.com/svgjs" version="1.1" width="512" height="512" x="0" y="0" viewBox="0 0 512 512" style="enable-background:new 0 0 512 512" xml:space="preserve" class=""><g><g xmlns="http://www.w3.org/2000/svg"><path d="m505.673 238.027c-3.97-2.813-9.056-3.526-13.644-1.914l-76.896 27.005v-64.236c0-8.284-6.716-15-15-15h-41.849c16.34-17.227 26.379-40.487 26.379-66.048 0-52.961-43.087-96.048-96.049-96.048-34.031 0-63.983 17.792-81.048 44.561-17.066-26.769-47.017-44.561-81.049-44.561-52.961 0-96.048 43.087-96.048 96.048 0 25.562 10.039 48.821 26.379 66.048h-41.848c-8.284 0-15 6.716-15 15v276.332c0 8.284 6.716 15 15 15h385.133c8.284 0 15-6.716 15-15v-64.236l76.896 27.005c1.619.568 3.299.847 4.97.847 3.067 0 6.105-.941 8.674-2.762 3.969-2.813 6.327-7.375 6.327-12.238v-173.564c0-4.864-2.358-9.426-6.327-12.239zm-217.059-186.241c36.42 0 66.049 29.629 66.049 66.048s-29.629 66.048-66.049 66.048c-36.419 0-66.048-29.629-66.048-66.048s29.629-66.048 66.048-66.048zm-81.048 117.535c3.325 5.216 7.14 10.092 11.379 14.561h-22.758c4.239-4.469 8.054-9.344 11.379-14.561zm-81.048-117.535c36.419 0 66.049 29.629 66.049 66.048s-29.629 66.048-66.049 66.048c-36.419 0-66.048-29.629-66.048-66.048s29.629-66.048 66.048-66.048zm258.615 408.428h-355.133v-246.332h355.133zm96.867-57.549-66.867-23.483v-84.267l66.867-23.483z" fill="#f4fff8" data-original="#000000" style="" class=""/><path d="m288.615 132.834c7.846 0 15.363-6.899 15-15-.364-8.127-6.591-15-15-15-7.846 0-15.363 6.899-15 15 .364 8.127 6.59 15 15 15z" fill="#f4fff8" data-original="#000000" style="" class=""/><path d="m126.518 132.834c7.846 0 15.363-6.899 15-15-.364-8.127-6.591-15-15-15-7.846 0-15.363 6.899-15 15 .364 8.127 6.591 15 15 15z" fill="#f4fff8" data-original="#000000" style="" class=""/><path d="m110.064 410.482h195.004c8.284 0 15-6.716 15-15v-116.867c0-8.284-6.716-15-15-15h-195.004c-8.284 0-15 6.716-15 15v116.868c0 8.284 6.716 14.999 15 14.999zm180.004-30h-105.004v-86.868h105.004zm-165.004-86.867h30v86.868h-30z" fill="#f4fff8" data-original="#000000" style="" class=""/></g></g></svg>
